<?xml version="1.0" standalone="no"?>
<!DOCTYPE svg PUBLIC "-//W3C//DTD SVG 20010904//EN"
 "http://www.w3.org/TR/2001/REC-SVG-20010904/DTD/svg10.dtd">
<svg version="1.0" xmlns="http://www.w3.org/2000/svg"
 width="96.000000pt" height="96.000000pt" viewBox="0 0 96.000000 96.000000"
 preserveAspectRatio="xMidYMid meet">
<metadata>
Created by potrace 1.10, written by Peter Selinger 2001-2011
</metadata>
<g transform="translate(0.000000,96.000000) scale(0.100000,-0.100000)"
fill="#000000" stroke="none">
<path d="M315 871 c-45 -20 -70 -60 -70 -112 l0 -49 113 -112 c61 -62 112
-107 112 -100 0 8 -45 59 -100 115 -58 60 -102 113 -105 129 -17 73 66 139
131 105 25 -13 284 -267 344 -337 l21 -25 -6 25 c-4 14 -82 101 -174 193 -152
153 -171 169 -207 173 -21 2 -48 0 -59 -5z"/>
<path d="M360 365 l-115 -115 0 -50 c0 -43 5 -54 33 -82 28 -28 39 -33 82 -33
l50 0 169 170 c107 107 172 180 177 198 l6 27 -144 0 -143 0 -115 -115z m360
77 c0 -4 -72 -79 -160 -167 -155 -154 -161 -160 -201 -160 -33 0 -46 6 -65 28
-44 51 -34 79 59 175 141 147 113 132 248 132 66 0 119 -3 119 -8z"/>
</g>
</svg>
